# xmcd CD database file
#
# Track frame offsets:
#	182
#	21955
#	33647
#	46007
#	84537
#	116555
#	128292
#	144140
#	157892
#	173247
#	187060
#	199347
#	230090
#	245812
#	260667
#
# Disc length: 3726 seconds
#
# Revision: 1
# Processed by: cddbd v1.5.2PL0 Copyright (c) Steve Scherf et al.
# Submitted via: CDex 1.51
#
DISCID=cc0e8c0f
DTITLE=Freedie Green - Vol. 254 - King Of Rhyithm Session
DYEAR=1962
DGENRE=Jazz
TTITLE0=Lil' Darlin'
TTITLE1=The Kid From Red Bank
TTITLE2=Port Of Rico
TTITLE3=Kansas City Side
TTITLE4=Woolafunt's Lament
TTITLE5=Up In The Blues
TTITLE6=Learnin' The Blues
TTITLE7=9:20 Special
TTITLE8=Swinging Back
TTITLE9=Doggin' Around
TTITLE10=It Had To Be You
TTITLE11=This Year's Kisses
TTITLE12=Freddie's Tune
TTITLE13=Babe's Blues
TTITLE14=Duet
EXTD=YEAR: 1962
EXTT0=
EXTT1=
EXTT2=
EXTT3=
EXTT4=
EXTT5=
EXTT6=
EXTT7=
EXTT8=
EXTT9=
EXTT10=
EXTT11=
EXTT12=
EXTT13=
EXTT14=
PLAYORDER=
